<?xml version="1.0" encoding="UTF-8"?>
<svg id="Camada_2" data-name="Camada 2" xmlns="http://www.w3.org/2000/svg" width="117.76" height="100" xmlns:xlink="http://www.w3.org/1999/xlink" viewBox="0 0 117.76 100">
  <defs>
    <style>
      .cls-1 {
        fill: url(#Gradiente_sem_nome_13-3);
      }

      .cls-2 {
        fill: url(#Gradiente_sem_nome_13-2);
      }

      .cls-3 {
        fill: #2d2459;
      }

      .cls-4 {
        fill: url(#Gradiente_sem_nome_13-5);
      }

      .cls-5 {
        fill: url(#Gradiente_sem_nome_13);
      }

      .cls-6 {
        fill: #e6292c;
      }

      .cls-7 {
        fill: url(#Gradiente_sem_nome_13-4);
      }

      .cls-8 {
        fill: url(#Nueva_muestra_de_degradado_2);
      }

      .cls-9 {
        fill: url(#Gradiente_sem_nome_13-7);
      }

      .cls-10 {
        fill: url(#Gradiente_sem_nome_13-6);
      }
    </style>
    <radialGradient id="Nueva_muestra_de_degradado_2" data-name="Nueva muestra de degradado 2" cx="92.56" cy="8.88" fx="92.56" fy="8.88" r="165.13" gradientUnits="userSpaceOnUse">
      <stop offset="0" stop-color="#73be89"/>
      <stop offset=".5" stop-color="#5eb349"/>
      <stop offset=".64" stop-color="#56ad46"/>
      <stop offset=".85" stop-color="#429f3d"/>
      <stop offset="1" stop-color="#2f9236"/>
    </radialGradient>
    <linearGradient id="Gradiente_sem_nome_13" data-name="Gradiente sem nome 13" x1="32.83" y1="85.91" x2="34.89" y2="107.12" gradientUnits="userSpaceOnUse">
      <stop offset="0" stop-color="#73be89"/>
      <stop offset=".5" stop-color="#5eb349"/>
      <stop offset=".64" stop-color="#56ad46"/>
      <stop offset=".85" stop-color="#429f3d"/>
      <stop offset="1" stop-color="#2f9236"/>
    </linearGradient>
    <linearGradient id="Gradiente_sem_nome_13-2" data-name="Gradiente sem nome 13" x1="43.73" y1="84.85" x2="45.79" y2="106.06" xlink:href="#Gradiente_sem_nome_13"/>
    <linearGradient id="Gradiente_sem_nome_13-3" data-name="Gradiente sem nome 13" x1="58.68" y1="83.4" x2="60.74" y2="104.61" xlink:href="#Gradiente_sem_nome_13"/>
    <linearGradient id="Gradiente_sem_nome_13-4" data-name="Gradiente sem nome 13" x1="71.49" y1="82.16" x2="73.55" y2="103.36" xlink:href="#Gradiente_sem_nome_13"/>
    <linearGradient id="Gradiente_sem_nome_13-5" data-name="Gradiente sem nome 13" x1="83.97" y1="80.95" x2="86.03" y2="102.15" xlink:href="#Gradiente_sem_nome_13"/>
    <linearGradient id="Gradiente_sem_nome_13-6" data-name="Gradiente sem nome 13" x1="97.44" y1="79.64" x2="99.5" y2="100.84" xlink:href="#Gradiente_sem_nome_13"/>
    <linearGradient id="Gradiente_sem_nome_13-7" data-name="Gradiente sem nome 13" x1="109.63" y1="78.46" x2="111.69" y2="99.66" xlink:href="#Gradiente_sem_nome_13"/>
  </defs>
  <g id="Layer_1" data-name="Layer 1">
    <path class="cls-8" d="M98.38,29.51L75.77,6.89c-3.5-3.5-9.16-3.5-12.66,0L26.1,43.89s0,0,0,0c-3.5,3.5-8.34,4.32-11.83,.82l11.83,11.83s0,0,0,0l5.55,5.55c.91,.47,1.98,.17,2.8-.65h0s10.5-10.5,10.5-10.5c.99-.99,2.6-.99,3.59,0l6.42,6.42c.99,.99,.99,2.6,0,3.59l-10.5,10.5c-.82,.82-2.05,.96-3.01,.43l7.27,7.27c3.5,3.5,9.16,3.5,12.66,0l37-37c3.5-3.5,3.5-9.16,0-12.66Z"/>
    <path class="cls-3" d="M14.27,44.72c3.5,3.5,8.34,2.67,11.83-.82,0,0,0,0,0,0L54.39,15.61h0L41.2,2.29c-3.82-3.86-10.32-2.68-12.55,2.27L13.85,42.86c-.24,.63-.09,1.34,.38,1.82l9.23,9.23-6.42-6.42-2.77-2.77Z"/>
    <g>
      <path class="cls-6" d="M.49,86.95H5.71l2.01,7.81,2-7.81h5.21v12.84h-3.25v-9.79l-2.5,9.79h-2.94l-2.5-9.79v9.79H.49v-12.84Z"/>
      <path class="cls-6" d="M16.17,86.95h4.41l2.59,4.33,2.59-4.33h4.38l-4.99,7.46v5.38h-3.98v-5.38l-5-7.46Z"/>
      <g>
        <rect class="cls-5" x="31.57" y="86.95" width="3.98" height="12.84"/>
        <polygon class="cls-2" points="46.95 94.05 42.12 86.95 38.42 86.95 38.42 99.78 42.15 99.78 42.15 92.73 46.95 99.78 50.69 99.78 50.69 86.95 46.95 86.95 46.95 94.05"/>
        <polygon class="cls-1" points="59.1 96.18 56.21 86.95 52.07 86.95 56.91 99.78 61.21 99.78 65.98 86.95 61.95 86.95 59.1 96.18"/>
        <polygon class="cls-7" points="71.24 94.34 77.41 94.34 77.41 91.73 71.24 91.73 71.24 89.69 77.9 89.69 77.9 86.95 67.27 86.95 67.27 99.78 78.09 99.78 78.09 96.87 71.24 96.87 71.24 94.34"/>
        <path class="cls-4" d="M89.03,92.28c-.75-.38-1.99-.76-3.73-1.13-.7-.15-1.14-.3-1.33-.47-.19-.16-.29-.35-.29-.55,0-.28,.12-.52,.35-.71,.23-.2,.58-.29,1.04-.29,.56,0,1,.13,1.32,.39s.53,.68,.63,1.26l3.74-.22c-.16-1.33-.68-2.3-1.54-2.91-.86-.61-2.11-.91-3.75-.91-1.34,0-2.39,.17-3.16,.5-.77,.34-1.34,.8-1.72,1.38-.38,.59-.57,1.21-.57,1.87,0,1,.37,1.83,1.12,2.48,.74,.65,1.98,1.17,3.72,1.56,1.06,.23,1.74,.48,2.03,.74,.29,.26,.44,.56,.44,.89,0,.35-.15,.66-.46,.92s-.74,.4-1.31,.4c-.76,0-1.34-.26-1.75-.78-.25-.32-.42-.79-.5-1.4l-3.77,.24c.11,1.3,.59,2.36,1.43,3.2,.84,.84,2.35,1.26,4.54,1.26,1.24,0,2.27-.18,3.09-.54,.82-.36,1.45-.89,1.91-1.58,.46-.69,.68-1.45,.68-2.28,0-.7-.17-1.33-.51-1.9-.34-.57-.89-1.04-1.64-1.42Z"/>
        <polygon class="cls-10" points="92.27 90.11 96.32 90.11 96.32 99.78 100.28 99.78 100.28 90.11 104.33 90.11 104.33 86.95 92.27 86.95 92.27 90.11"/>
        <path class="cls-9" d="M116.56,93.7c-.34-.57-.89-1.04-1.64-1.42-.75-.38-1.99-.76-3.73-1.13-.7-.15-1.14-.3-1.33-.47-.19-.16-.29-.35-.29-.55,0-.28,.12-.52,.35-.71,.23-.2,.58-.29,1.04-.29,.56,0,1,.13,1.32,.39s.53,.68,.63,1.26l3.74-.22c-.16-1.33-.68-2.3-1.54-2.91-.86-.61-2.11-.91-3.75-.91-1.34,0-2.39,.17-3.16,.5-.77,.34-1.34,.8-1.72,1.38-.38,.59-.57,1.21-.57,1.87,0,1,.37,1.83,1.12,2.48,.74,.65,1.98,1.17,3.72,1.56,1.06,.23,1.74,.48,2.03,.74,.29,.26,.44,.56,.44,.89,0,.35-.15,.66-.46,.92s-.74,.4-1.31,.4c-.76,0-1.34-.26-1.75-.78-.25-.32-.42-.79-.5-1.4l-3.77,.24c.11,1.3,.59,2.36,1.43,3.2,.84,.84,2.35,1.26,4.54,1.26,1.24,0,2.27-.18,3.09-.54,.82-.36,1.45-.89,1.91-1.58,.46-.69,.68-1.45,.68-2.28,0-.7-.17-1.33-.51-1.9Z"/>
      </g>
    </g>
    <path class="cls-6" d="M14.04,52.65l23.79,24.46c1.66,1.7,.45,4.56-1.93,4.56H2.69c-1.89,0-3.19-1.89-2.51-3.65l9.42-24.46c.7-1.83,3.07-2.31,4.44-.91Z"/>
    <path class="cls-6" d="M96.89,57.3l20.06,19.72c1.71,1.69,.52,4.6-1.88,4.6h-40.11c-2.41,0-3.6-2.92-1.88-4.6l20.06-19.72c1.05-1.03,2.72-1.03,3.77,0Z"/>
  </g>
</svg>